# WaveFront *.obj file (generated by Autodesk ATF)

mtllib dc7f4bc5-a3d1-44c8-9428-09968cdbb1bc.mtl

g Body1

v 31.897287 83.674131 -47.686064
v 17.897287 83.674131 -47.686064
v 14.385661 83.328266 -44.174439
v 11.008985 82.303963 -40.797763
v 7.897023 80.640584 -37.685800
v 5.169365 78.402053 -34.958142
v 2.930834 75.674395 -32.719611
v 1.267455 72.562433 -31.056233
v 0.672361 70.899255 -30.461138
v 0.243152 69.185757 -30.031929
v -0.016038 67.438439 -29.772739
v -0.102713 65.674131 -29.686064
v 49.897287 65.674131 -29.686064
v 49.810612 67.438439 -29.772739
v 49.551422 69.185757 -30.031929
v 49.122213 70.899255 -30.461138
v 48.527118 72.562433 -31.056233
v 46.863740 75.674395 -32.719611
v 44.625209 78.402053 -34.958142
v 41.897551 80.640584 -37.685800
v 38.785589 82.303963 -40.797763
v 35.408913 83.328266 -44.174439
v -0.102713 65.674131 -119.686064
v 17.897287 83.674131 -101.686064
v 14.385661 83.328266 -105.197690
v 11.008985 82.303963 -108.574366
v 7.897023 80.640584 -111.686329
v 5.169365 78.402053 -114.413986
v 2.930834 75.674395 -116.652517
v 1.267455 72.562433 -118.315896
v 0.672361 70.899255 -118.910990
v 0.243152 69.185757 -119.340199
v -0.016038 67.438439 -119.599389
v 31.897287 83.674131 -101.686064
v 49.897287 65.674131 -119.686064
v 49.810612 67.438439 -119.599389
v 49.551422 69.185757 -119.340199
v 49.122213 70.899255 -118.910990
v 48.527118 72.562433 -118.315896
v 46.863740 75.674395 -116.652517
v 44.625209 78.402053 -114.413986
v 41.897551 80.640584 -111.686329
v 38.785589 82.303963 -108.574366
v 35.408913 83.328266 -105.197690
v 49.897287 28.674131 -29.686064
v 49.897287 28.674131 -119.686064
v -0.102713 28.674131 -29.686064
v -0.102713 28.674131 -119.686064
vt 0.700000 -1.413717 0.000000
vt 1.051163 -1.060288 0.000000
vt -0.700000 -1.413717 0.000000
vt -1.051163 -1.060288 0.000000
vt 1.388830 -0.706858 0.000000
vt -1.388830 -0.706858 0.000000
vt 1.700026 -0.353429 0.000000
vt -1.700026 -0.353429 0.000000
vt -1.972792 0.000000 0.000000
vt 1.972792 0.000000 0.000000
vt -2.196645 0.353429 0.000000
vt 2.196645 0.353429 0.000000
vt 2.362983 0.706858 0.000000
vt -2.362983 0.706858 0.000000
vt 2.422493 0.883573 0.000000
vt -2.422493 0.883573 0.000000
vt -2.465414 1.060288 0.000000
vt 2.465414 1.060288 0.000000
vt 2.491333 1.237002 0.000000
vt 2.500000 1.413717 0.000000
vt -2.500000 1.413717 0.000000
vt -2.491333 1.237002 0.000000
vt 4.500000 1.413717 0.000000
vt -4.500000 1.413717 0.000000
vt 4.491333 1.237002 0.000000
vt -4.491333 1.237002 0.000000
vt -4.465414 1.060288 0.000000
vt -4.422493 0.883573 0.000000
vt 4.422493 0.883573 0.000000
vt 4.465414 1.060288 0.000000
vt -4.362983 0.706858 0.000000
vt 4.362983 0.706858 0.000000
vt -4.196645 0.353429 0.000000
vt 4.196645 0.353429 0.000000
vt 3.972792 -0.000000 0.000000
vt -3.972792 -0.000000 0.000000
vt 3.700026 -0.353429 0.000000
vt -3.700026 -0.353429 0.000000
vt -3.388830 -0.706858 0.000000
vt 3.388830 -0.706858 0.000000
vt -3.051163 -1.060288 0.000000
vt 3.051163 -1.060288 0.000000
vt -2.700000 -1.413717 0.000000
vt 2.700000 -1.413717 0.000000
vt 2.700000 -1.413717 0.000000
vt 3.051163 -1.060288 0.000000
vt -2.700000 -1.413717 0.000000
vt -3.051163 -1.060288 0.000000
vt 3.388830 -0.706858 0.000000
vt -3.388830 -0.706858 0.000000
vt 3.700026 -0.353429 0.000000
vt -3.700026 -0.353429 0.000000
vt -3.972792 0.000000 0.000000
vt 3.972792 0.000000 0.000000
vt -4.196645 0.353429 0.000000
vt 4.196645 0.353429 0.000000
vt 4.362983 0.706858 0.000000
vt -4.362983 0.706858 0.000000
vt 4.422493 0.883573 0.000000
vt -4.422493 0.883573 0.000000
vt -4.465414 1.060288 0.000000
vt 4.465414 1.060288 0.000000
vt 4.491333 1.237002 0.000000
vt 4.500000 1.413717 0.000000
vt -4.500000 1.413717 0.000000
vt -4.491333 1.237002 0.000000
vt 0.700000 -1.413717 0.000000
vt 1.051163 -1.060288 0.000000
vt -0.700000 -1.413717 0.000000
vt -1.051163 -1.060288 0.000000
vt 1.388830 -0.706858 0.000000
vt -1.388830 -0.706858 0.000000
vt 1.700026 -0.353429 0.000000
vt -1.700026 -0.353429 0.000000
vt -1.972792 -0.000000 0.000000
vt 1.972792 0.000000 0.000000
vt -2.196645 0.353429 0.000000
vt 2.196645 0.353429 0.000000
vt 2.362983 0.706858 0.000000
vt -2.362983 0.706858 0.000000
vt 2.422493 0.883573 0.000000
vt -2.422493 0.883573 0.000000
vt -2.465414 1.060288 0.000000
vt 2.465414 1.060288 0.000000
vt 2.491333 1.237002 0.000000
vt 2.500000 1.413717 0.000000
vt -2.500000 1.413717 0.000000
vt -2.491333 1.237002 0.000000
vt 0.950000 4.500000 0.000000
vt -2.750000 4.500000 0.000000
vt 0.950000 -4.500000 0.000000
vt -2.750000 -4.500000 0.000000
vt -0.950000 -2.500000 0.000000
vt 2.750000 -2.500000 0.000000
vt -0.950000 2.500000 0.000000
vt 2.750000 2.500000 0.000000
vt 2.700000 0.700000 0.000000
vt -2.700000 0.700000 0.000000
vt 2.700000 -0.700000 0.000000
vt -2.700000 -0.700000 0.000000
vt -4.500000 -2.500000 0.000000
vt 4.500000 -2.500000 0.000000
vt -4.500000 2.500000 0.000000
vt 4.500000 2.500000 0.000000
vt -0.950000 -4.500000 0.000000
vt 2.750000 -4.500000 0.000000
vt -0.950000 4.500000 0.000000
vt 2.750000 4.500000 0.000000
vt 0.950000 2.500000 0.000000
vt -2.750000 2.500000 0.000000
vt 0.950000 -2.500000 0.000000
vt -2.750000 -2.500000 0.000000
vn -0.000000 0.100000 -0.000000
vn 0.000000 0.098079 0.019509
vn -0.000000 0.100000 -0.000000
vn 0.000000 0.098079 0.019509
vn 0.000000 0.092388 0.038268
vn 0.000000 0.092388 0.038268
vn 0.000000 0.083147 0.055557
vn 0.000000 0.083147 0.055557
vn 0.000000 0.070711 0.070711
vn 0.000000 0.070711 0.070711
vn 0.000000 0.055557 0.083147
vn 0.000000 0.055557 0.083147
vn 0.000000 0.038268 0.092388
vn 0.000000 0.038268 0.092388
vn 0.000000 0.029028 0.095694
vn 0.000000 0.029028 0.095694
vn 0.000000 0.019509 0.098079
vn 0.000000 0.019509 0.098079
vn 0.000000 0.009802 0.099518
vn 0.000000 0.000000 0.100000
vn 0.000000 0.000000 0.100000
vn 0.000000 0.009802 0.099518
vn -0.100000 0.000000 -0.000000
vn -0.100000 0.000000 -0.000000
vn -0.099518 0.009802 -0.000000
vn -0.099518 0.009802 -0.000000
vn -0.098079 0.019509 -0.000000
vn -0.095694 0.029028 -0.000000
vn -0.095694 0.029028 -0.000000
vn -0.098079 0.019509 -0.000000
vn -0.092388 0.038268 -0.000000
vn -0.092388 0.038268 -0.000000
vn -0.083147 0.055557 -0.000000
vn -0.083147 0.055557 -0.000000
vn -0.070711 0.070711 -0.000000
vn -0.070711 0.070711 -0.000000
vn -0.055557 0.083147 -0.000000
vn -0.055557 0.083147 -0.000000
vn -0.038268 0.092388 -0.000000
vn -0.038268 0.092388 -0.000000
vn -0.019509 0.098079 -0.000000
vn -0.019509 0.098079 -0.000000
vn -0.000000 0.100000 -0.000000
vn 0.019509 0.098079 0.000000
vn -0.000000 0.100000 -0.000000
vn 0.019509 0.098079 0.000000
vn 0.038268 0.092388 0.000000
vn 0.038268 0.092388 0.000000
vn 0.055557 0.083147 0.000000
vn 0.055557 0.083147 0.000000
vn 0.070711 0.070711 0.000000
vn 0.070711 0.070711 0.000000
vn 0.083147 0.055557 0.000000
vn 0.083147 0.055557 0.000000
vn 0.092388 0.038268 0.000000
vn 0.092388 0.038268 0.000000
vn 0.095694 0.029028 0.000000
vn 0.095694 0.029028 0.000000
vn 0.098079 0.019509 0.000000
vn 0.098079 0.019509 0.000000
vn 0.099518 0.009802 0.000000
vn 0.100000 0.000000 0.000000
vn 0.100000 0.000000 0.000000
vn 0.099518 0.009802 0.000000
vn -0.000000 0.098079 -0.019509
vn -0.000000 0.098079 -0.019509
vn -0.000000 0.092388 -0.038268
vn -0.000000 0.092388 -0.038268
vn -0.000000 0.083147 -0.055557
vn -0.000000 0.083147 -0.055557
vn -0.000000 0.070711 -0.070711
vn -0.000000 0.070711 -0.070711
vn -0.000000 0.055557 -0.083147
vn -0.000000 0.055557 -0.083147
vn -0.000000 0.038268 -0.092388
vn -0.000000 0.038268 -0.092388
vn -0.000000 0.029028 -0.095694
vn -0.000000 0.029028 -0.095694
vn -0.000000 0.019509 -0.098079
vn -0.000000 0.019509 -0.098079
vn -0.000000 0.009802 -0.099518
vn -0.000000 0.000000 -0.100000
vn -0.000000 0.000000 -0.100000
vn -0.000000 0.009802 -0.099518
vn 0.100000 0.000000 0.000000
vn 0.100000 0.000000 0.000000
vn 0.000000 0.000000 0.100000
vn 0.000000 0.000000 0.100000
vn 0.000000 -0.100000 0.000000
vn 0.000000 -0.100000 0.000000
vn 0.000000 -0.100000 0.000000
vn 0.000000 -0.100000 0.000000
vn -0.100000 0.000000 0.000000
vn -0.100000 0.000000 0.000000
vn 0.000000 0.000000 -0.100000
vn 0.000000 0.000000 -0.100000
usemtl Cherry
f 2/1/1 3/2/2 1/3/3
f 1/3/3 3/2/2 22/4/4
f 22/4/4 3/2/2 4/5/5
f 22/4/4 4/5/5 21/6/6
f 21/6/6 4/5/5 5/7/7
f 21/6/6 5/7/7 20/8/8
f 20/8/8 5/7/7 19/9/9
f 19/9/9 5/7/7 6/10/10
f 19/9/9 6/10/10 18/11/11
f 18/11/11 6/10/10 7/12/12
f 18/11/11 7/12/12 8/13/13
f 18/11/11 8/13/13 17/14/14
f 17/14/14 8/13/13 9/15/15
f 17/14/14 9/15/15 16/16/16
f 16/16/16 9/15/15 15/17/17
f 15/17/17 9/15/15 10/18/18
f 15/17/17 10/18/18 11/19/19
f 12/20/20 13/21/21 11/19/19
f 11/19/19 13/21/21 14/22/22
f 11/19/19 14/22/22 15/17/17
f 23/23/23 12/24/24 33/25/25
f 33/25/25 12/24/24 11/26/26
f 33/25/25 11/26/26 10/27/27
f 9/28/28 31/29/29 10/27/27
f 10/27/27 31/29/29 32/30/30
f 10/27/27 32/30/30 33/25/25
f 9/28/28 8/31/31 31/29/29
f 31/29/29 8/31/31 30/32/32
f 30/32/32 8/31/31 7/33/33
f 30/32/32 7/33/33 29/34/34
f 29/34/34 7/33/33 28/35/35
f 28/35/35 7/33/33 6/36/36
f 28/35/35 6/36/36 27/37/37
f 27/37/37 6/36/36 5/38/38
f 27/37/37 5/38/38 4/39/39
f 27/37/37 4/39/39 26/40/40
f 26/40/40 4/39/39 3/41/41
f 26/40/40 3/41/41 25/42/42
f 25/42/42 3/41/41 2/43/1
f 25/42/42 2/43/1 24/44/43
f 1/45/3 22/46/44 34/47/45
f 34/47/45 22/46/44 44/48/46
f 44/48/46 22/46/44 21/49/47
f 44/48/46 21/49/47 43/50/48
f 43/50/48 21/49/47 20/51/49
f 43/50/48 20/51/49 42/52/50
f 42/52/50 20/51/49 41/53/51
f 41/53/51 20/51/49 19/54/52
f 41/53/51 19/54/52 40/55/53
f 40/55/53 19/54/52 18/56/54
f 40/55/53 18/56/54 17/57/55
f 40/55/53 17/57/55 39/58/56
f 39/58/56 17/57/55 16/59/57
f 39/58/56 16/59/57 38/60/58
f 38/60/58 16/59/57 37/61/59
f 37/61/59 16/59/57 15/62/60
f 37/61/59 15/62/60 14/63/61
f 13/64/62 35/65/63 14/63/61
f 14/63/61 35/65/63 36/66/64
f 14/63/61 36/66/64 37/61/59
f 34/67/45 44/68/65 24/69/43
f 24/69/43 44/68/65 25/70/66
f 25/70/66 44/68/65 43/71/67
f 25/70/66 43/71/67 26/72/68
f 26/72/68 43/71/67 42/73/69
f 26/72/68 42/73/69 27/74/70
f 27/74/70 42/73/69 28/75/71
f 28/75/71 42/73/69 41/76/72
f 28/75/71 41/76/72 29/77/73
f 29/77/73 41/76/72 40/78/74
f 29/77/73 40/78/74 39/79/75
f 29/77/73 39/79/75 30/80/76
f 30/80/76 39/79/75 38/81/77
f 30/80/76 38/81/77 31/82/78
f 31/82/78 38/81/77 32/83/79
f 32/83/79 38/81/77 37/84/80
f 32/83/79 37/84/80 36/85/81
f 35/86/82 23/87/83 36/85/81
f 36/85/81 23/87/83 33/88/84
f 36/85/81 33/88/84 32/83/79
f 13/89/62 45/90/85 35/91/63
f 35/91/63 45/90/85 46/92/86
f 12/93/20 47/94/87 13/95/21
f 13/95/21 47/94/87 45/96/88
f 1/97/3 34/98/45 2/99/1
f 2/99/1 34/98/45 24/100/43
f 47/101/89 48/102/90 45/103/91
f 45/103/91 48/102/90 46/104/92
f 23/105/23 48/106/93 12/107/24
f 12/107/24 48/106/93 47/108/94
f 35/109/82 46/110/95 23/111/83
f 23/111/83 46/110/95 48/112/96

g Body2

v -0.654300 44.674461 -77.862489
v -0.654300 44.674461 -70.862489
v 0.345700 44.674461 -70.862489
v 0.345700 44.674461 -77.862489
v -0.654300 52.282537 -72.377561
v 0.345700 52.282537 -72.377561
v -0.654300 52.262549 -75.639829
v 0.345700 52.262549 -75.639829
v 0.345700 42.829000 -61.054876
v 0.345700 42.829000 -86.054876
v 0.345700 60.829000 -86.054876
v 0.345700 60.829000 -61.054876
v 0.345700 52.767273 -71.929311
v 0.345700 53.350377 -71.619657
v 0.345700 53.993211 -71.469117
v 0.345700 54.653175 -71.487667
v 0.345700 55.286537 -71.674078
v 0.345700 55.851327 -72.015997
v 0.345700 56.310120 -72.490768
v 0.345700 56.632511 -73.066928
v 0.345700 56.797139 -73.706298
v 0.345700 56.793094 -74.366511
v 0.345700 56.620644 -75.003816
v 0.345700 56.291217 -75.575982
v 0.345700 55.826642 -76.045095
v 0.345700 55.257704 -76.380069
v 0.345700 54.622105 -76.558705
v 0.345700 53.961963 -76.569167
v 0.345700 53.321023 -76.410761
v 0.345700 52.741756 -76.093985
v -0.654300 52.767273 -71.929311
v -0.654300 53.350377 -71.619657
v -0.654300 53.993211 -71.469117
v -0.654300 54.653175 -71.487667
v -0.654300 55.286537 -71.674078
v -0.654300 55.851327 -72.015997
v -0.654300 56.310120 -72.490768
v -0.654300 56.632511 -73.066928
v -0.654300 56.797139 -73.706298
v -0.654300 56.793094 -74.366511
v -0.654300 56.620644 -75.003816
v -0.654300 56.291217 -75.575982
v -0.654300 55.826642 -76.045095
v -0.654300 55.257704 -76.380069
v -0.654300 54.622105 -76.558705
v -0.654300 53.961963 -76.569167
v -0.654300 53.321023 -76.410761
v -0.654300 52.741756 -76.093985
v -0.654300 42.829000 -86.054876
v -0.654300 42.829000 -61.054876
v -0.654300 60.829000 -61.054876
v -0.654300 60.829000 -86.054876
vt -0.700000 0.000000 0.000000
vt 0.000000 0.000000 0.000000
vt -0.700000 0.100000 0.000000
vt 0.000000 0.100000 0.000000
vt -0.775746 0.000000 0.000000
vt -0.000000 0.000000 0.000000
vt -0.775746 0.100000 0.000000
vt -0.000000 0.100000 0.000000
vt -0.790691 0.000000 0.000000
vt -0.000000 0.000000 0.000000
vt -0.790691 0.100000 0.000000
vt -0.000000 0.100000 0.000000
vt 0.900000 1.250000 0.000000
vt 0.715454 -0.269239 0.000000
vt 0.900000 -1.250000 0.000000
vt -0.093827 -0.162557 0.000000
vt -0.152138 -0.193522 0.000000
vt -0.900000 1.250000 0.000000
vt -0.149202 0.285589 0.000000
vt -0.091276 0.253911 0.000000
vt 0.715454 0.430761 0.000000
vt -0.043355 0.208495 0.000000
vt -0.900000 -1.250000 0.000000
vt -0.496814 0.015142 0.000000
vt -0.496409 0.081163 0.000000
vt -0.479164 0.144894 0.000000
vt -0.216421 -0.208576 0.000000
vt -0.282418 -0.206721 0.000000
vt -0.045354 -0.117732 0.000000
vt -0.345754 -0.188080 0.000000
vt -0.402233 -0.153888 0.000000
vt -0.448112 -0.106411 0.000000
vt -0.480351 -0.048795 0.000000
vt -0.446222 0.202111 0.000000
vt -0.399764 0.249022 0.000000
vt -0.342870 0.282519 0.000000
vt -0.279311 0.300383 0.000000
vt -0.213296 0.301429 0.000000
vt 0.100000 0.578088 0.000000
vt 0.100000 0.644294 0.000000
vt 0.000000 0.578088 0.000000
vt 0.000000 0.644294 0.000000
vt 0.100000 0.710500 0.000000
vt 0.000000 0.710500 0.000000
vt 0.100000 0.776707 0.000000
vt 0.000000 0.776707 0.000000
vt 0.100000 0.842913 0.000000
vt 0.000000 0.842913 0.000000
vt 0.000000 -0.768578 0.000000
vt 0.100000 -0.768578 0.000000
vt 0.100000 -0.702372 0.000000
vt 0.000000 -0.702372 0.000000
vt 0.100000 -0.636166 0.000000
vt 0.000000 -0.636166 0.000000
vt 0.100000 -0.569959 0.000000
vt 0.000000 -0.569959 0.000000
vt 0.100000 -0.503753 0.000000
vt 0.000000 -0.503753 0.000000
vt 0.100000 -0.437547 0.000000
vt 0.000000 -0.437547 0.000000
vt 0.100000 -0.371341 0.000000
vt 0.000000 -0.371341 0.000000
vt 0.100000 -0.305135 0.000000
vt 0.000000 -0.305135 0.000000
vt 0.100000 -0.238929 0.000000
vt 0.000000 -0.238929 0.000000
vt 0.100000 -0.172722 0.000000
vt 0.000000 -0.172722 0.000000
vt 0.100000 -0.106516 0.000000
vt 0.000000 -0.106516 0.000000
vt 0.100000 -0.040310 0.000000
vt 0.000000 -0.040310 0.000000
vt 0.100000 0.025896 0.000000
vt 0.000000 0.025896 0.000000
vt 0.100000 0.092102 0.000000
vt 0.000000 0.092102 0.000000
vt 0.100000 0.158308 0.000000
vt 0.000000 0.158308 0.000000
vt 0.100000 0.224514 0.000000
vt 0.000000 0.224514 0.000000
vt 0.043355 0.208495 0.000000
vt 0.091276 0.253911 0.000000
vt -0.715454 0.430761 0.000000
vt -0.900000 1.250000 0.000000
vt -0.715454 -0.269239 0.000000
vt -0.900000 -1.250000 0.000000
vt 0.093827 -0.162557 0.000000
vt 0.152138 -0.193522 0.000000
vt 0.900000 -1.250000 0.000000
vt 0.216421 -0.208576 0.000000
vt 0.282418 -0.206721 0.000000
vt 0.345754 -0.188080 0.000000
vt 0.402233 -0.153888 0.000000
vt 0.448112 -0.106411 0.000000
vt 0.480351 -0.048795 0.000000
vt 0.496814 0.015142 0.000000
vt 0.900000 1.250000 0.000000
vt 0.496409 0.081163 0.000000
vt 0.479164 0.144894 0.000000
vt 0.446222 0.202111 0.000000
vt 0.399764 0.249022 0.000000
vt 0.342870 0.282519 0.000000
vt 0.279311 0.300383 0.000000
vt 0.213296 0.301429 0.000000
vt 0.149202 0.285589 0.000000
vt 0.045354 -0.117732 0.000000
vt -0.050000 -0.900000 0.000000
vt 0.050000 -0.900000 0.000000
vt -0.050000 0.900000 0.000000
vt 0.050000 0.900000 0.000000
vt 0.050000 1.250000 0.000000
vt -0.050000 1.250000 0.000000
vt 0.050000 -1.250000 0.000000
vt -0.050000 -1.250000 0.000000
vt 0.050000 0.900000 0.000000
vt -0.050000 0.900000 0.000000
vt 0.050000 -0.900000 0.000000
vt -0.050000 -0.900000 0.000000
vt -0.050000 -1.250000 0.000000
vt 0.050000 -1.250000 0.000000
vt -0.050000 1.250000 0.000000
vt 0.050000 1.250000 0.000000
vn -0.000000 0.100000 -0.000000
vn -0.000000 0.100000 -0.000000
vn -0.000000 0.100000 -0.000000
vn -0.000000 0.100000 -0.000000
vn 0.000000 -0.019531 -0.098074
vn 0.000000 -0.019531 -0.098074
vn 0.000000 -0.019531 -0.098074
vn 0.000000 -0.019531 -0.098074
vn 0.000000 -0.028110 0.095968
vn 0.000000 -0.028110 0.095968
vn 0.000000 -0.028110 0.095968
vn 0.000000 -0.028110 0.095968
vn 0.100000 0.000000 0.000000
vn 0.100000 0.000000 0.000000
vn 0.100000 0.000000 0.000000
vn 0.100000 0.000000 0.000000
vn 0.100000 0.000000 0.000000
vn 0.100000 0.000000 0.000000
vn 0.100000 0.000000 0.000000
vn 0.100000 0.000000 0.000000
vn 0.100000 0.000000 0.000000
vn 0.100000 0.000000 0.000000
vn 0.100000 0.000000 0.000000
vn 0.100000 0.000000 0.000000
vn 0.100000 0.000000 0.000000
vn 0.100000 0.000000 0.000000
vn 0.100000 0.000000 0.000000
vn 0.100000 0.000000 0.000000
vn 0.100000 0.000000 0.000000
vn 0.100000 0.000000 0.000000
vn 0.100000 0.000000 0.000000
vn 0.100000 0.000000 0.000000
vn 0.100000 0.000000 0.000000
vn 0.100000 0.000000 0.000000
vn 0.100000 0.000000 0.000000
vn 0.100000 0.000000 0.000000
vn 0.100000 0.000000 0.000000
vn 0.100000 0.000000 0.000000
vn 0.000000 0.077558 0.063125
vn 0.000000 0.058874 0.080832
vn 0.000000 0.077558 0.063125
vn 0.000000 0.058874 0.080832
vn 0.000000 0.036288 0.093184
vn 0.000000 0.036288 0.093184
vn 0.000000 0.011298 0.099360
vn 0.000000 0.011298 0.099360
vn 0.000000 -0.014441 0.098952
vn 0.000000 -0.014441 0.098952
vn 0.000000 -0.039223 0.091987
vn 0.000000 -0.039223 0.091987
vn 0.000000 -0.061406 0.078926
vn 0.000000 -0.061406 0.078926
vn 0.000000 -0.079519 0.060636
vn 0.000000 -0.079519 0.060636
vn 0.000000 -0.092364 0.038327
vn 0.000000 -0.092364 0.038327
vn 0.000000 -0.099088 0.013478
vn 0.000000 -0.099088 0.013478
vn 0.000000 -0.099245 -0.012263
vn 0.000000 -0.099245 -0.012263
vn 0.000000 -0.092826 -0.037192
vn 0.000000 -0.092826 -0.037192
vn 0.000000 -0.080256 -0.059657
vn 0.000000 -0.080256 -0.059657
vn 0.000000 -0.062368 -0.078168
vn 0.000000 -0.062368 -0.078168
vn 0.000000 -0.040347 -0.091499
vn 0.000000 -0.040347 -0.091499
vn 0.000000 -0.015652 -0.098767
vn 0.000000 -0.015652 -0.098767
vn 0.000000 0.010080 -0.099491
vn 0.000000 0.010080 -0.099491
vn 0.000000 0.035144 -0.093621
vn 0.000000 0.035144 -0.093621
vn 0.000000 0.057879 -0.081548
vn 0.000000 0.057879 -0.081548
vn 0.000000 0.076779 -0.064071
vn 0.000000 0.076779 -0.064071
vn -0.100000 0.000000 0.000000
vn -0.100000 0.000000 0.000000
vn -0.100000 0.000000 0.000000
vn -0.100000 0.000000 0.000000
vn -0.100000 0.000000 0.000000
vn -0.100000 0.000000 0.000000
vn -0.100000 0.000000 0.000000
vn -0.100000 0.000000 0.000000
vn -0.100000 0.000000 0.000000
vn -0.100000 0.000000 0.000000
vn -0.100000 0.000000 0.000000
vn -0.100000 0.000000 0.000000
vn -0.100000 0.000000 0.000000
vn -0.100000 0.000000 0.000000
vn -0.100000 0.000000 0.000000
vn -0.100000 0.000000 0.000000
vn -0.100000 0.000000 0.000000
vn -0.100000 0.000000 0.000000
vn -0.100000 0.000000 0.000000
vn -0.100000 0.000000 0.000000
vn -0.100000 0.000000 0.000000
vn -0.100000 0.000000 0.000000
vn -0.100000 0.000000 0.000000
vn -0.100000 0.000000 0.000000
vn -0.100000 0.000000 0.000000
vn -0.100000 0.000000 0.000000
vn 0.000000 0.000000 0.100000
vn 0.000000 0.000000 0.100000
vn 0.000000 0.000000 0.100000
vn 0.000000 0.000000 0.100000
vn -0.000000 0.100000 -0.000000
vn -0.000000 0.100000 -0.000000
vn -0.000000 0.100000 -0.000000
vn -0.000000 0.100000 -0.000000
vn 0.000000 0.000000 -0.100000
vn 0.000000 0.000000 -0.100000
vn 0.000000 0.000000 -0.100000
vn 0.000000 0.000000 -0.100000
vn 0.000000 -0.100000 0.000000
vn 0.000000 -0.100000 0.000000
vn 0.000000 -0.100000 0.000000
vn 0.000000 -0.100000 0.000000
usemtl Aluminum_-_Anodized_Glossy_(Grey)
f 49/113/97 50/114/98 52/115/99
f 52/115/99 50/114/98 51/116/100
f 50/117/101 53/118/102 51/119/103
f 51/119/103 53/118/102 54/120/104
f 55/121/105 49/122/106 56/123/107
f 56/123/107 49/122/106 52/124/108
f 58/125/109 51/126/110 57/127/111
f 57/127/111 51/126/110 61/128/112
f 57/127/111 61/128/112 62/129/113
f 59/130/114 77/131/115 58/125/109
f 58/125/109 77/131/115 78/132/116
f 58/125/109 78/132/116 52/133/117
f 52/133/117 78/132/116 56/134/118
f 60/135/119 69/136/120 59/130/114
f 59/130/114 69/136/120 70/137/121
f 59/130/114 70/137/121 71/138/122
f 57/127/111 62/129/113 60/135/119
f 60/135/119 62/129/113 63/139/123
f 60/135/119 63/139/123 64/140/124
f 52/133/117 51/126/110 58/125/109
f 51/126/110 54/141/125 61/128/112
f 64/140/124 65/142/126 60/135/119
f 60/135/119 65/142/126 66/143/127
f 60/135/119 66/143/127 67/144/128
f 67/144/128 68/145/129 60/135/119
f 60/135/119 68/145/129 69/136/120
f 71/138/122 72/146/130 59/130/114
f 59/130/114 72/146/130 73/147/131
f 59/130/114 73/147/131 74/148/132
f 74/148/132 75/149/133 59/130/114
f 59/130/114 75/149/133 76/150/134
f 59/130/114 76/150/134 77/131/115
f 56/151/135 78/152/136 55/153/137
f 55/153/137 78/152/136 96/154/138
f 96/154/138 78/152/136 77/155/139
f 96/154/138 77/155/139 95/156/140
f 95/156/140 77/155/139 76/157/141
f 95/156/140 76/157/141 94/158/142
f 94/158/142 76/157/141 75/159/143
f 94/158/142 75/159/143 93/160/144
f 93/161/144 75/162/143 74/163/145
f 93/161/144 74/163/145 92/164/146
f 92/164/146 74/163/145 73/165/147
f 92/164/146 73/165/147 91/166/148
f 91/166/148 73/165/147 72/167/149
f 91/166/148 72/167/149 90/168/150
f 90/168/150 72/167/149 71/169/151
f 90/168/150 71/169/151 89/170/152
f 89/170/152 71/169/151 70/171/153
f 89/170/152 70/171/153 88/172/154
f 88/172/154 70/171/153 69/173/155
f 88/172/154 69/173/155 87/174/156
f 87/174/156 69/173/155 68/175/157
f 87/174/156 68/175/157 86/176/158
f 86/176/158 68/175/157 67/177/159
f 86/176/158 67/177/159 85/178/160
f 85/178/160 67/177/159 66/179/161
f 85/178/160 66/179/161 84/180/162
f 84/180/162 66/179/161 65/181/163
f 84/180/162 65/181/163 83/182/164
f 83/182/164 65/181/163 64/183/165
f 83/182/164 64/183/165 82/184/166
f 82/184/166 64/183/165 63/185/167
f 82/184/166 63/185/167 81/186/168
f 81/186/168 63/185/167 62/187/169
f 81/186/168 62/187/169 80/188/170
f 80/188/170 62/187/169 61/189/171
f 80/188/170 61/189/171 79/190/172
f 79/190/172 61/189/171 54/191/173
f 79/190/172 54/191/173 53/192/174
f 55/193/175 96/194/176 49/195/177
f 49/195/177 96/194/176 97/196/178
f 49/195/177 97/196/178 50/197/179
f 50/197/179 97/196/178 98/198/180
f 50/197/179 98/198/180 79/199/181
f 79/199/181 98/198/180 80/200/182
f 80/200/182 98/198/180 99/201/183
f 80/200/182 99/201/183 81/202/184
f 81/202/184 99/201/183 82/203/185
f 82/203/185 99/201/183 83/204/186
f 83/204/186 99/201/183 84/205/187
f 84/205/187 99/201/183 85/206/188
f 85/206/188 99/201/183 86/207/189
f 86/207/189 99/201/183 87/208/190
f 87/208/190 99/201/183 100/209/191
f 87/208/190 100/209/191 88/210/192
f 88/210/192 100/209/191 89/211/193
f 89/211/193 100/209/191 90/212/194
f 90/212/194 100/209/191 91/213/195
f 91/213/195 100/209/191 92/214/196
f 92/214/196 100/209/191 93/215/197
f 93/215/197 100/209/191 94/216/198
f 94/216/198 100/209/191 95/217/199
f 95/217/199 100/209/191 97/196/178
f 95/217/199 97/196/178 96/194/176
f 79/199/181 53/218/200 50/197/179
f 60/219/201 99/220/202 57/221/203
f 57/221/203 99/220/202 98/222/204
f 59/223/205 100/224/206 60/225/207
f 60/225/207 100/224/206 99/226/208
f 58/227/209 97/228/210 59/229/211
f 59/229/211 97/228/210 100/230/212
f 57/231/213 98/232/214 58/233/215
f 58/233/215 98/232/214 97/234/216

# 100 vertices
# 234 texture params
# 216 normals
# 196 facets

# 2 groups
